<svg height="958" width="720" xmlns="http://www.w3.org/2000/svg">
<rect height="958" fill="#555" width="720"></rect>
<text fill="#7f7" font-family="Courier New" font-size="12" xml:space="preserve">
<tspan x="10" y="26">7 megabytes installed</tspan>
<tspan x="10" y="42"></tspan>
<tspan x="10" y="58">node_modules</tspan>
<tspan x="10" y="74">└─┬ leveldown@1.6.0 </tspan>
<tspan x="10" y="90">  ├─┬ abstract-leveldown@2.6.1 </tspan>
<tspan x="10" y="106">  │ └── xtend@4.0.1 </tspan>
<tspan x="10" y="122">  ├── bindings@1.2.1 </tspan>
<tspan x="10" y="138">  ├── fast-future@1.0.2 </tspan>
<tspan x="10" y="154">  ├── nan@2.5.1 </tspan>
<tspan x="10" y="170">  └─┬ prebuild-install@2.1.2 </tspan>
<tspan x="10" y="186">    ├── expand-template@1.0.3 </tspan>
<tspan x="10" y="202">    ├── github-from-package@0.0.0 </tspan>
<tspan x="10" y="218">    ├── minimist@1.2.0 </tspan>
<tspan x="10" y="234">    ├─┬ mkdirp@0.5.1 </tspan>
<tspan x="10" y="250">    │ └── minimist@0.0.8 </tspan>
<tspan x="10" y="266">    ├── node-abi@2.0.0 </tspan>
<tspan x="10" y="282">    ├── noop-logger@0.1.1 </tspan>
<tspan x="10" y="298">    ├─┬ npmlog@4.0.2 </tspan>
<tspan x="10" y="314">    │ ├─┬ are-we-there-yet@1.1.2 </tspan>
<tspan x="10" y="330">    │ │ ├── delegates@1.0.0 </tspan>
<tspan x="10" y="346">    │ │ └─┬ readable-stream@2.2.9 </tspan>
<tspan x="10" y="362">    │ │   ├── buffer-shims@1.0.0 </tspan>
<tspan x="10" y="378">    │ │   ├── core-util-is@1.0.2 </tspan>
<tspan x="10" y="394">    │ │   ├── inherits@2.0.3 </tspan>
<tspan x="10" y="410">    │ │   ├── isarray@1.0.0 </tspan>
<tspan x="10" y="426">    │ │   ├── process-nextick-args@1.0.7 </tspan>
<tspan x="10" y="442">    │ │   ├── string_decoder@1.0.0 </tspan>
<tspan x="10" y="458">    │ │   └── util-deprecate@1.0.2 </tspan>
<tspan x="10" y="474">    │ ├── console-control-strings@1.1.0 </tspan>
<tspan x="10" y="490">    │ ├─┬ gauge@2.7.3 </tspan>
<tspan x="10" y="506">    │ │ ├── aproba@1.1.1 </tspan>
<tspan x="10" y="522">    │ │ ├── has-unicode@2.0.1 </tspan>
<tspan x="10" y="538">    │ │ ├── object-assign@4.1.1 </tspan>
<tspan x="10" y="554">    │ │ ├── signal-exit@3.0.2 </tspan>
<tspan x="10" y="570">    │ │ ├─┬ string-width@1.0.2 </tspan>
<tspan x="10" y="586">    │ │ │ ├── code-point-at@1.1.0 </tspan>
<tspan x="10" y="602">    │ │ │ └─┬ is-fullwidth-code-point@1.0.0 </tspan>
<tspan x="10" y="618">    │ │ │   └── number-is-nan@1.0.1 </tspan>
<tspan x="10" y="634">    │ │ ├─┬ strip-ansi@3.0.1 </tspan>
<tspan x="10" y="650">    │ │ │ └── ansi-regex@2.1.1 </tspan>
<tspan x="10" y="666">    │ │ └── wide-align@1.1.0 </tspan>
<tspan x="10" y="682">    │ └── set-blocking@2.0.0 </tspan>
<tspan x="10" y="698">    ├── os-homedir@1.0.2 </tspan>
<tspan x="10" y="714">    ├─┬ pump@1.0.2 </tspan>
<tspan x="10" y="730">    │ ├── end-of-stream@1.4.0 </tspan>
<tspan x="10" y="746">    │ └─┬ once@1.4.0 </tspan>
<tspan x="10" y="762">    │   └── wrappy@1.0.2 </tspan>
<tspan x="10" y="778">    ├─┬ rc@1.2.1 </tspan>
<tspan x="10" y="794">    │ ├── deep-extend@0.4.1 </tspan>
<tspan x="10" y="810">    │ ├── ini@1.3.4 </tspan>
<tspan x="10" y="826">    │ └── strip-json-comments@2.0.1 </tspan>
<tspan x="10" y="842">    ├─┬ simple-get@1.4.3 </tspan>
<tspan x="10" y="858">    │ └── unzip-response@1.0.2 </tspan>
<tspan x="10" y="874">    ├─┬ tar-fs@1.15.2 </tspan>
<tspan x="10" y="890">    │ ├── chownr@1.0.1 </tspan>
<tspan x="10" y="906">    │ └─┬ tar-stream@1.5.2 </tspan>
<tspan x="10" y="922">    │   └── bl@1.2.0 </tspan>
<tspan x="10" y="938">    └── tunnel-agent@0.4.3</tspan>
</text>
</svg>
